# Blender v3.4.1 OBJ File: 'CityBits_Export.blend'
# www.blender.org
mtllib box_A.mtl
o box_A_Cube.929
v -0.100000 -0.000000 0.100000
v -0.100000 0.175768 0.100000
v -0.100000 -0.000000 -0.100000
v -0.100000 0.175768 -0.100000
v 0.100000 -0.000000 0.100000
v 0.100000 0.175768 0.100000
v 0.100000 -0.000000 -0.100000
v 0.100000 0.175768 -0.100000
v 0.026045 0.077671 0.103077
v 0.026045 0.033298 0.103077
v 0.090542 0.077671 0.103077
v 0.090542 0.033298 0.103077
v -0.016587 -0.000000 -0.100000
v 0.016587 -0.000000 -0.100000
v 0.016587 0.175768 -0.100000
v -0.016587 0.175768 -0.100000
v 0.016587 -0.000000 0.100000
v -0.016587 -0.000000 0.100000
v -0.016587 0.175768 0.100000
v 0.016587 0.175768 0.100000
v -0.038934 0.176401 -0.035946
v -0.047887 0.176401 -0.087826
v -0.091597 0.176401 -0.080283
v -0.082645 0.176401 -0.028403
vt 0.648126 0.597554
vt 0.648126 0.647209
vt 0.648126 0.647209
vt 0.648126 0.597554
vt 0.717708 0.685271
vt 0.688688 0.685271
vt 0.688688 0.685271
vt 0.717708 0.685271
vt 0.717708 0.597554
vt 0.717708 0.647209
vt 0.717708 0.647209
vt 0.717708 0.597554
vt 0.714418 0.679210
vt 0.714418 0.691745
vt 0.691978 0.691745
vt 0.691978 0.679210
vt 0.648126 0.572179
vt 0.677146 0.572179
vt 0.677146 0.572179
vt 0.648126 0.572179
vt 0.688688 0.647209
vt 0.688688 0.597554
vt 0.677146 0.685271
vt 0.648126 0.685271
vt 0.648126 0.685271
vt 0.677146 0.685271
vt 0.688688 0.597554
vt 0.688688 0.647209
vt 0.677146 0.597554
vt 0.677146 0.647209
vt 0.688688 0.572179
vt 0.717708 0.572179
vt 0.717708 0.572179
vt 0.688688 0.572179
vt 0.677146 0.435271
vt 0.677146 0.435271
vt 0.688688 0.435271
vt 0.688688 0.435271
vt 0.688688 0.322179
vt 0.688688 0.322179
vt 0.677146 0.322179
vt 0.677146 0.322179
vt 0.677146 0.397209
vt 0.677146 0.347554
vt 0.688688 0.347554
vt 0.688688 0.397209
vt 0.688688 0.397209
vt 0.688688 0.347554
vt 0.677146 0.347554
vt 0.677146 0.397209
vt 0.677146 0.647209
vt 0.677146 0.597554
vt 0.696792 0.727104
vt 0.667771 0.727104
vt 0.667771 0.727104
vt 0.696792 0.727104
vn -1.0000 0.0000 0.0000
vn 0.0000 1.0000 0.0000
vn 1.0000 0.0000 0.0000
vn 0.0000 0.0000 1.0000
vn 0.0000 -1.0000 0.0000
vn 0.0000 0.0000 -1.0000
usemtl citybits_texture
s 1
f 1/1/1 2/2/1 4/3/1 3/4/1
f 8/5/2 15/6/2 20/7/2 6/8/2
f 7/9/3 8/10/3 6/11/3 5/12/3
f 12/13/4 11/14/4 9/15/4 10/16/4
f 3/17/5 13/18/5 18/19/5 1/20/5
f 5/12/4 6/11/4 20/21/4 17/22/4
f 16/23/2 4/24/2 2/25/2 19/26/2
f 14/27/6 15/28/6 8/10/6 7/9/6
f 18/29/4 19/30/4 2/2/4 1/1/4
f 14/31/5 7/32/5 5/33/5 17/34/5
f 16/35/2 19/36/2 20/37/2 15/38/2
f 14/39/5 17/40/5 18/41/5 13/42/5
f 19/43/4 18/44/4 17/45/4 20/46/4
f 15/47/6 14/48/6 13/49/6 16/50/6
f 3/4/6 4/3/6 16/51/6 13/52/6
f 22/53/2 23/54/2 24/55/2 21/56/2
