# Blender v3.4.1 OBJ File: 'CityBits_Export.blend'
# www.blender.org
mtllib road_corner.mtl
o road_corner_Cube.948
v -1.000000 0.000000 1.000000
v -1.000000 0.070000 1.000000
v -1.000000 0.000000 -1.000000
v -1.000000 0.070000 -1.000000
v 1.000000 0.000000 1.000000
v 1.000000 0.070000 1.000000
v 1.000000 0.000000 -1.000000
v 1.000000 0.070000 -1.000000
v 0.900000 0.000000 -1.000000
v -0.900000 0.000000 -1.000000
v -0.900000 0.070000 -1.000000
v 0.900000 0.070000 -1.000000
v -0.900000 0.000000 1.000000
v 0.900000 0.000000 1.000000
v 0.900000 0.070000 1.000000
v -0.900000 0.070000 1.000000
v -1.000000 0.000000 -0.900000
v -1.000000 0.000000 0.900000
v -1.000000 0.070000 0.900000
v -1.000000 0.070000 -0.900000
v 1.000000 0.000000 0.900000
v 1.000000 0.000000 -0.900000
v 1.000000 0.070000 -0.900000
v 1.000000 0.070000 0.900000
v 0.900000 0.070000 -0.900000
v 0.900000 0.070000 0.900000
v -0.900000 0.070000 0.900000
v -0.900000 0.000000 -0.900000
v -0.900000 0.000000 0.900000
v 0.900000 0.000000 -0.900000
v 0.900000 0.000000 0.900000
v -1.000000 0.100000 -1.000000
v 1.000000 0.100000 -1.000000
v 1.000000 0.100000 1.000000
v -1.000000 0.100000 1.000000
v 0.900000 0.100000 -1.000000
v 0.930000 0.100000 1.000000
v -0.930000 0.100000 1.000000
v -1.000000 0.100000 0.900000
v -1.000000 0.100000 -0.900000
v 1.000000 0.100000 -0.930000
v 1.000000 0.100000 0.930000
v 0.900000 0.100000 -0.930000
v 0.930000 0.100000 0.930000
v -0.930000 0.100000 0.900000
v -0.632716 0.070000 -0.900000
v -0.900000 0.070000 -0.632716
v -0.735001 0.070000 -0.879654
v -0.821714 0.070000 -0.821714
v -0.879654 0.070000 -0.735001
v -0.930000 0.100000 -0.662716
v -0.662716 0.100000 -0.930000
v -0.900000 0.100000 -0.999950
v -0.909654 0.100000 -0.765001
v -0.851714 0.100000 -0.851714
v -0.765001 0.100000 -0.909654
v 0.580000 0.073000 0.872417
v 0.620000 0.073000 1.000000
v 0.580000 0.073000 1.000000
v 0.872417 0.073000 0.580000
v 1.000000 0.073000 0.620000
v 1.000000 0.073000 0.580000
v 0.900000 0.073000 0.620000
v 0.620000 0.073000 0.900000
v 0.786717 0.073000 0.635182
v 0.693726 0.073000 0.693726
v 0.635182 0.073000 0.786717
v 0.602259 0.073000 0.760514
v 0.665647 0.073000 0.665647
v 0.760514 0.073000 0.602259
v -0.620000 0.073000 -0.327583
v -0.580000 0.073000 1.000000
v -0.620000 0.073000 1.000000
v -0.327583 0.073000 -0.620000
v 1.000000 0.073000 -0.580000
v 1.000000 0.073000 -0.620000
v -0.300000 0.073000 -0.580000
v -0.580000 0.073000 -0.300000
v -0.413283 0.073000 -0.564818
v -0.506274 0.073000 -0.506274
v -0.564818 0.073000 -0.413283
v -0.597741 0.073000 -0.439486
v -0.534353 0.073000 -0.534353
v -0.439486 0.073000 -0.597741
v 0.020000 0.073000 0.100000
v -0.020000 0.073000 0.100000
v -0.020000 0.073000 0.300000
v 0.020000 0.073000 0.300000
v 0.020000 0.073000 0.500000
v -0.020000 0.073000 0.500000
v -0.020000 0.073000 0.700000
v 0.020000 0.073000 0.700000
v 0.020000 0.073000 0.900000
v -0.020000 0.073000 0.900000
v 0.900000 0.073000 -0.020000
v 0.900000 0.073000 0.020000
v 0.700000 0.073000 0.020000
v 0.700000 0.073000 -0.020000
v 0.500000 0.073000 -0.020000
v 0.500000 0.073000 0.020000
v 0.300000 0.073000 0.020000
v 0.300000 0.073000 -0.020000
v 0.100000 0.073000 -0.020000
v 0.100000 0.073000 0.020000
v -0.020000 0.073000 0.100000
v 0.100000 0.073000 -0.020000
v -0.010866 0.073000 0.054078
v 0.015147 0.073000 0.015147
v 0.054078 0.073000 -0.010866
v 0.100000 0.073000 0.020000
v 0.020000 0.073000 0.100000
v 0.069385 0.073000 0.026090
v 0.043431 0.073000 0.043431
v 0.026090 0.073000 0.069385
vt 0.341823 0.791153
vt 0.345504 0.791153
vt 0.345504 0.791153
vt 0.341823 0.791153
vt 0.308694 0.825770
vt 0.308694 0.825770
vt 0.308694 0.811717
vt 0.308694 0.811717
vt 0.308694 0.825770
vt 0.312375 0.825770
vt 0.312375 0.811717
vt 0.308694 0.811717
vt 0.308694 0.863281
vt 0.308696 0.863281
vt 0.312375 0.863281
vt 0.312375 0.825770
vt 0.312375 0.825770
vt 0.312375 0.832031
vt 0.312375 0.832031
vt 0.308694 0.832031
vt 0.308694 0.832031
vt 0.312375 0.811717
vt 0.312375 0.811717
vt 0.312375 0.811717
vt 0.308694 0.811717
vt 0.341823 0.811717
vt 0.341823 0.825770
vt 0.345504 0.825770
vt 0.345504 0.811717
vt 0.341823 0.791153
vt 0.312375 0.791153
vt 0.312375 0.780467
vt 0.341823 0.780467
vt 0.308694 0.832031
vt 0.312375 0.832031
vt 0.341823 0.811717
vt 0.345504 0.811717
vt 0.345504 0.811717
vt 0.341823 0.811717
vt 0.345504 0.825770
vt 0.341823 0.825770
vt 0.341823 0.832031
vt 0.345504 0.832031
vt 0.341823 0.780467
vt 0.341823 0.780467
vt 0.312375 0.780467
vt 0.312375 0.780467
vt 0.341823 0.811717
vt 0.345504 0.780467
vt 0.345504 0.780467
vt 0.345504 0.811717
vt 0.345504 0.832031
vt 0.345504 0.832031
vt 0.345504 0.825770
vt 0.345504 0.825770
vt 0.345504 0.832031
vt 0.341823 0.832031
vt 0.341823 0.825770
vt 0.308694 0.832031
vt 0.308694 0.825770
vt 0.312375 0.832031
vt 0.312375 0.825770
vt 0.316748 0.825770
vt 0.341823 0.825770
vt 0.341823 0.832031
vt 0.316748 0.832031
vt 0.312375 0.791153
vt 0.341823 0.832031
vt 0.341823 0.863281
vt 0.345504 0.863281
vt 0.345504 0.863281
vt 0.341823 0.863281
vt 0.308694 0.863281
vt 0.312375 0.863281
vt 0.312375 0.863281
vt 0.316748 0.863281
vt 0.308694 0.863281
vt 0.312375 0.863281
vt 0.345504 0.863281
vt 0.341823 0.863281
vt 0.341823 0.863281
vt 0.345504 0.863281
vt 0.312375 0.863281
vt 0.312375 0.863281
vt 0.315075 0.832031
vt 0.315075 0.825770
vt 0.312375 0.832031
vt 0.312375 0.825770
vt 0.312375 0.832031
vt 0.312375 0.825770
vt 0.312375 0.791153
vt 0.313124 0.863281
vt 0.312375 0.863281
vt 0.466823 0.666153
vt 0.466823 0.666153
vt 0.437375 0.666153
vt 0.437375 0.666153
vt 0.466823 0.666153
vt 0.466823 0.666153
vt 0.437375 0.666153
vt 0.437375 0.666153
vt 0.487541 0.666153
vt 0.458736 0.666153
vt 0.466823 0.666153
vt 0.466823 0.666153
vt 0.487541 0.666153
vt 0.458736 0.666153
vt 0.466823 0.666153
vt 0.466823 0.666153
vt 0.437375 0.666153
vt 0.437375 0.666153
vt 0.466823 0.666153
vt 0.466823 0.666153
vt 0.437375 0.666153
vt 0.437375 0.666153
vt 0.487541 0.666153
vt 0.458736 0.666153
vt 0.466823 0.666153
vt 0.466823 0.666153
vt 0.487541 0.666153
vt 0.458736 0.666153
vt 0.216823 0.916153
vt 0.216823 0.916153
vt 0.187375 0.916153
vt 0.187375 0.916153
vt 0.216823 0.916153
vt 0.216823 0.916153
vt 0.187375 0.916153
vt 0.187375 0.916153
vt 0.216823 0.916153
vt 0.216823 0.916153
vt 0.187375 0.916153
vt 0.187375 0.916153
vt 0.216823 0.916153
vt 0.216823 0.916153
vt 0.187375 0.916153
vt 0.187375 0.916153
vt 0.216823 0.916153
vt 0.216823 0.916153
vt 0.187375 0.916153
vt 0.187375 0.916153
vt 0.221306 0.916153
vt 0.194100 0.916153
vt 0.216823 0.916153
vt 0.213250 0.916153
vt 0.221306 0.916153
vt 0.194100 0.916153
vt 0.216823 0.916153
vt 0.187375 0.916153
vt 0.216823 0.916153
vt 0.187375 0.916153
vt 0.312708 0.791153
vt 0.316748 0.791153
vt 0.315075 0.791153
vt 0.313656 0.791153
vn 0.0000 1.0000 0.0000
vn -1.0000 0.0000 0.0000
vn 0.0001 0.0004 -1.0000
vn 0.0000 0.0000 -1.0000
vn 0.7071 0.7071 0.0000
vn 0.0000 -1.0000 0.0000
vn -0.0000 0.0002 -1.0000
vn 0.0000 0.0000 1.0000
vn 0.0003 0.0008 -1.0000
vn 0.0001 0.0008 -1.0000
vn 0.0000 0.7071 -0.7071
vn 1.0000 0.0000 0.0000
vn 0.6600 0.7463 0.0863
vn 0.6849 0.7274 0.0424
vn 0.0424 0.7274 0.6849
vn 0.0000 0.7071 0.7071
vn 0.0863 0.7463 0.6600
vn -0.7071 0.7071 0.0000
vn -0.0000 0.0004 -1.0000
vn 0.2497 0.7981 0.5484
vn 0.2091 0.7881 0.5789
vn 0.4082 0.8165 0.4082
vn 0.5484 0.7981 0.2497
vn 0.5789 0.7881 0.2091
usemtl citybits_texture
s 1
f 26/1/1 24/2/1 23/3/1 25/4/1
f 2/5/2 19/6/2 18/7/2 1/8/2
f 4/9/3 11/10/3 10/11/4 3/12/4
f 32/13/1 40/14/1 53/15/1
f 16/16/5 27/17/5 45/18/5 38/19/5
f 2/5/2 35/20/2 39/21/2 19/6/2
f 18/7/6 29/22/6 13/23/6 1/8/6
f 10/11/6 28/24/6 17/25/6 3/12/6
f 9/26/4 12/27/7 8/28/4 7/29/4
f 15/30/8 16/31/8 13/32/8 14/33/8
f 11/10/3 4/9/3 32/34/9 53/35/10
f 11/10/3 12/27/7 9/26/4 10/11/4
f 31/36/6 21/37/6 5/38/6 14/39/6
f 24/40/11 26/41/11 44/42/11 42/43/11
f 30/44/6 31/45/6 29/46/6 28/47/6
f 29/46/6 31/45/6 14/33/6 13/32/6
f 9/26/6 30/48/6 28/24/6 10/11/6
f 28/24/6 29/22/6 18/7/6 17/25/6
f 21/49/6 31/45/6 30/44/6 22/50/6
f 7/29/6 22/51/6 30/48/6 9/26/6
f 8/28/12 33/52/12 41/53/12 23/54/12
f 6/55/8 34/56/8 37/57/8 15/58/8
f 19/6/2 39/21/2 40/59/2 20/60/2
f 51/61/13 45/18/5 27/17/5 47/62/14
f 4/9/2 20/60/2 40/59/2 32/34/2
f 46/63/15 25/64/16 43/65/16 52/66/17
f 26/1/1 27/67/1 16/31/1 15/30/1
f 15/58/18 37/57/18 44/42/18 26/41/18
f 6/55/12 24/40/12 42/43/12 34/56/12
f 25/64/16 23/54/16 41/53/16 43/65/16
f 8/28/4 12/27/7 36/68/19 33/52/4
f 2/5/8 16/16/8 38/19/8 35/20/8
f 43/69/1 41/70/1 33/71/1 36/72/1
f 11/10/3 53/35/10 36/68/19 12/27/7
f 23/3/12 24/2/12 21/49/12 22/50/12
f 21/37/12 24/40/12 6/55/12 5/38/12
f 19/6/2 20/60/2 17/25/2 18/7/2
f 17/25/2 20/60/2 4/9/2 3/12/2
f 13/23/8 16/16/8 2/5/8 1/8/8
f 39/73/1 45/74/1 51/75/1 40/14/1
f 53/15/1 52/76/1 43/69/1 36/72/1
f 45/74/1 39/73/1 35/77/1 38/78/1
f 42/79/1 44/80/1 37/81/1 34/82/1
f 6/55/8 15/58/8 14/39/8 5/38/8
f 8/28/12 23/54/12 22/51/12 7/29/12
f 56/83/1 52/84/1 53/15/1
f 46/63/15 52/66/17 56/85/20 48/86/21
f 48/86/21 56/85/20 55/87/22 49/88/22
f 49/88/22 55/87/22 54/89/23 50/90/24
f 50/90/24 54/89/23 51/61/13 47/62/14
f 26/1/1 47/91/1 27/67/1
f 54/92/1 55/93/1 40/14/1
f 40/14/1 55/93/1 53/15/1
f 55/93/1 56/83/1 53/15/1
f 51/75/1 54/92/1 40/14/1
f 58/94/1 64/95/1 57/96/1 59/97/1
f 63/98/1 61/99/1 62/100/1 60/101/1
f 57/96/1 64/95/1 67/102/1 68/103/1
f 68/103/1 67/102/1 66/104/1 69/105/1
f 69/105/1 66/104/1 65/106/1 70/107/1
f 70/107/1 65/106/1 63/98/1 60/101/1
f 72/108/1 78/109/1 71/110/1 73/111/1
f 77/112/1 75/113/1 76/114/1 74/115/1
f 71/110/1 78/109/1 81/116/1 82/117/1
f 82/117/1 81/116/1 80/118/1 83/119/1
f 83/119/1 80/118/1 79/120/1 84/121/1
f 84/121/1 79/120/1 77/112/1 74/115/1
f 89/122/1 88/123/1 87/124/1 90/125/1
f 93/126/1 92/127/1 91/128/1 94/129/1
f 97/130/1 96/131/1 95/132/1 98/133/1
f 101/134/1 100/135/1 99/136/1 102/137/1
f 85/138/8 111/139/8 105/140/8 86/141/8
f 105/140/1 111/139/1 114/142/1 107/143/1
f 107/143/1 114/142/1 113/144/1 108/145/1
f 108/145/1 113/144/1 112/146/1 109/147/1
f 109/147/1 112/146/1 110/148/1 106/149/1
f 110/148/8 104/150/8 103/151/8 106/149/8
f 50/152/1 47/91/1 26/1/1
f 25/4/1 46/153/1 26/1/1
f 46/153/1 48/154/1 26/1/1
f 48/154/1 49/155/1 26/1/1
f 49/155/1 50/152/1 26/1/1
