# Blender v3.4.1 OBJ File: 'CityBits_Export.blend'
# www.blender.org
mtllib trash_B.mtl
o trash_B_Icosphere.021
v 0.015979 0.000000 0.038470
v -0.025722 0.000000 0.025129
v -0.025921 0.000000 -0.018654
v 0.015658 0.000000 -0.032372
v 0.041553 0.000000 0.002933
v -0.008077 0.023243 0.025248
v -0.026509 0.023243 0.000120
v -0.008306 0.023243 -0.025174
v 0.021375 0.023243 -0.015679
v 0.021517 0.023243 0.015484
v 0.002838 0.040390 0.002042
vt 0.950296 0.588966
vt 0.963023 0.588966
vt 0.953051 0.614759
vt 0.929542 0.588966
vt 0.938325 0.614759
vt 0.929444 0.588966
vt 0.929152 0.614759
vt 0.950137 0.588966
vt 0.938211 0.614759
vt 0.952981 0.614759
vt 0.938325 0.655840
vt 0.953051 0.655840
vt 0.952284 0.616735
vt 0.929152 0.655840
vt 0.938211 0.655840
vt 0.952981 0.655840
vn 0.3118 -0.3892 0.8668
vn 0.9209 -0.3892 0.0203
vn 0.5978 0.6765 0.4302
vn -0.6885 -0.4631 0.5581
vn -0.2689 0.6322 0.7267
vn -0.6935 -0.5197 -0.4990
vn -0.8361 0.5482 -0.0178
vn 0.3105 -0.4631 -0.8301
vn -0.2824 0.5482 -0.7872
vn 0.6036 0.6322 -0.4858
vn 0.0595 0.9973 0.0428
usemtl citybits_texture
s 1
f 1/1/1 5/2/2 10/3/3
f 2/4/4 1/1/1 6/5/5
f 3/6/6 2/4/4 7/7/7
f 4/8/8 3/6/6 8/9/9
f 5/2/2 4/8/8 9/10/10
f 1/1/1 10/3/3 6/5/5
f 2/4/4 6/5/5 7/7/7
f 3/6/6 7/7/7 8/9/9
f 4/8/8 8/9/9 9/10/10
f 5/2/2 9/10/10 10/3/3
f 6/11/5 10/12/3 11/13/11
f 7/14/7 6/11/5 11/13/11
f 8/15/9 7/14/7 11/13/11
f 9/16/10 8/15/9 11/13/11
f 10/12/3 9/16/10 11/13/11
f 5/2/2 3/6/6 4/8/8
f 1/1/1 2/4/4 3/6/6 5/2/2
