# Blender v3.4.1 OBJ File: 'CityBits_Export.blend'
# www.blender.org
mtllib base.mtl
o base_Cube.953
v -1.000000 0.000000 1.000000
v -1.000000 0.100000 1.000000
v -1.000000 0.000000 -1.000000
v -1.000000 0.100000 -1.000000
v 1.000000 0.000000 1.000000
v 1.000000 0.100000 1.000000
v 1.000000 0.000000 -1.000000
v 1.000000 0.100000 -1.000000
v 0.900000 0.000000 -1.000000
v -0.900000 0.000000 -1.000000
v -0.900000 0.100000 -1.000000
v 0.900000 0.100000 -1.000000
v -0.900000 0.000000 1.000000
v 0.900000 0.000000 1.000000
v 0.900000 0.100000 1.000000
v -0.900000 0.100000 1.000000
v -1.000000 0.000000 -0.900000
v -1.000000 0.000000 0.900000
v -1.000000 0.100000 0.900000
v -1.000000 0.100000 -0.900000
v 1.000000 0.000000 0.900000
v 1.000000 0.000000 -0.900000
v 1.000000 0.100000 -0.900000
v 1.000000 0.100000 0.900000
v 0.900000 0.100000 -0.900000
v 0.900000 0.100000 0.900000
v -0.900000 0.100000 -0.900000
v -0.900000 0.100000 0.900000
v -0.900000 0.000000 -0.900000
v -0.900000 0.000000 0.900000
v 0.900000 0.000000 -0.900000
v 0.900000 0.000000 0.900000
vt 0.278910 0.827342
vt 0.278910 0.847656
vt 0.278910 0.847656
vt 0.278910 0.827342
vt 0.331598 0.827342
vt 0.331598 0.847656
vt 0.334371 0.847656
vt 0.334371 0.827342
vt 0.334371 0.827342
vt 0.334371 0.847656
vt 0.334371 0.847656
vt 0.334371 0.827342
vt 0.281683 0.827342
vt 0.281683 0.847656
vt 0.278910 0.847656
vt 0.278910 0.827342
vt 0.331598 0.780467
vt 0.334371 0.780467
vt 0.334371 0.780467
vt 0.331598 0.780467
vt 0.281683 0.878906
vt 0.278910 0.878906
vt 0.278910 0.878906
vt 0.281683 0.878906
vt 0.334371 0.878906
vt 0.331598 0.878906
vt 0.331598 0.878906
vt 0.334371 0.878906
vt 0.281683 0.780467
vt 0.281683 0.780467
vt 0.331598 0.832031
vt 0.281683 0.832031
vt 0.281683 0.811717
vt 0.331598 0.811717
vt 0.278910 0.780467
vt 0.278910 0.780467
vt 0.331598 0.847656
vt 0.331598 0.827342
vt 0.281683 0.832031
vt 0.331598 0.832031
vt 0.331598 0.811717
vt 0.281683 0.811717
vt 0.331598 0.863281
vt 0.281683 0.863281
vt 0.281683 0.863281
vt 0.331598 0.863281
vt 0.281683 0.847656
vt 0.281683 0.827342
vt 0.331598 0.863281
vt 0.331598 0.863281
vt 0.281683 0.863281
vt 0.281683 0.863281
vt 0.331598 0.780467
vt 0.281683 0.780467
vt 0.278910 0.780467
vt 0.281683 0.780467
vt 0.278910 0.780467
vt 0.331598 0.780467
vt 0.281683 0.847656
vt 0.281683 0.847656
vt 0.331598 0.847656
vt 0.331598 0.847656
vt 0.334371 0.878906
vt 0.331598 0.878906
vt 0.331598 0.878906
vt 0.334371 0.878906
vt 0.334371 0.863281
vt 0.334371 0.863281
vt 0.281683 0.878906
vt 0.278910 0.878906
vt 0.278910 0.878906
vt 0.281683 0.878906
vt 0.278910 0.863281
vt 0.278910 0.863281
vt 0.334371 0.780467
vt 0.334371 0.780467
vt 0.334371 0.847656
vt 0.334371 0.827342
vt 0.334371 0.832031
vt 0.334371 0.832031
vt 0.334371 0.811717
vt 0.334371 0.811717
vt 0.278910 0.847656
vt 0.278910 0.827342
vt 0.278910 0.832031
vt 0.278910 0.832031
vt 0.278910 0.811717
vt 0.278910 0.811717
vn -1.0000 0.0000 0.0000
vn 0.0000 0.0000 -1.0000
vn 1.0000 0.0000 0.0000
vn 0.0000 0.0000 1.0000
vn 0.0000 -1.0000 0.0000
vn 0.0000 1.0000 0.0000
usemtl citybits_texture
s 1
f 17/1/1 20/2/1 4/3/1 3/4/1
f 9/5/2 12/6/2 8/7/2 7/8/2
f 21/9/3 24/10/3 6/11/3 5/12/3
f 13/13/4 16/14/4 2/15/4 1/16/4
f 32/17/5 21/18/5 5/19/5 14/20/5
f 28/21/6 19/22/6 2/23/6 16/24/6
f 24/25/6 26/26/6 15/27/6 6/28/6
f 32/17/5 14/20/5 13/29/5 30/30/5
f 15/31/4 16/32/4 13/33/4 14/34/4
f 18/35/5 30/30/5 13/29/5 1/36/5
f 5/12/4 6/11/4 15/37/4 14/38/4
f 11/39/2 12/40/2 9/41/2 10/42/2
f 12/43/6 11/44/6 27/45/6 25/46/6
f 3/4/2 4/3/2 11/47/2 10/48/2
f 15/49/6 26/50/6 28/51/6 16/52/6
f 31/53/5 32/17/5 30/30/5 29/54/5
f 3/55/5 10/56/5 29/54/5 17/57/5
f 29/54/5 30/30/5 18/35/5 17/57/5
f 9/58/5 31/53/5 29/54/5 10/56/5
f 27/59/6 28/60/6 26/61/6 25/62/6
f 8/63/6 12/64/6 25/65/6 23/66/6
f 25/46/6 26/50/6 24/67/6 23/68/6
f 11/69/6 4/70/6 20/71/6 27/72/6
f 27/45/6 20/73/6 19/74/6 28/51/6
f 9/58/5 7/75/5 22/76/5 31/53/5
f 31/53/5 22/76/5 21/18/5 32/17/5
f 7/8/3 8/7/3 23/77/3 22/78/3
f 23/79/3 24/80/3 21/81/3 22/82/3
f 1/16/1 2/15/1 19/83/1 18/84/1
f 19/85/1 20/86/1 17/87/1 18/88/1
