# Blender v3.4.1 OBJ File: 'CityBits_Export.blend'
# www.blender.org
mtllib bench.mtl
o bench_Cube.926
v 0.111095 0.000000 0.046911
v 0.111095 0.070000 0.046911
v 0.111095 0.000000 -0.046911
v 0.111095 0.070000 -0.046911
v 0.148905 0.000000 0.046911
v 0.148905 0.070000 0.046911
v 0.148905 0.000000 -0.046911
v 0.148905 0.070000 -0.046911
v -0.148905 0.000000 0.046911
v -0.148905 0.070000 0.046911
v -0.148905 0.000000 -0.046911
v -0.148905 0.070000 -0.046911
v -0.111095 0.000000 0.046911
v -0.111095 0.070000 0.046911
v -0.111095 0.000000 -0.046911
v -0.111095 0.070000 -0.046911
v -0.172867 0.060000 0.075000
v -0.200000 0.060000 0.047867
v -0.200000 0.100000 0.047867
v -0.172867 0.100000 0.075000
v -0.200000 0.060000 -0.047867
v -0.172867 0.060000 -0.075000
v -0.172867 0.100000 -0.075000
v -0.200000 0.100000 -0.047867
v 0.200000 0.060000 0.047867
v 0.172867 0.060000 0.075000
v 0.172867 0.100000 0.075000
v 0.200000 0.100000 0.047867
v 0.172867 0.060000 -0.075000
v 0.200000 0.060000 -0.047867
v 0.200000 0.100000 -0.047867
v 0.172867 0.100000 -0.075000
vt 0.733067 0.859889
vt 0.733067 0.885375
vt 0.673189 0.885375
vt 0.673189 0.859889
vt 0.737766 0.859889
vt 0.737766 0.885375
vt 0.737766 0.885375
vt 0.737766 0.859889
vt 0.737766 0.901000
vt 0.733067 0.901000
vt 0.733067 0.901000
vt 0.737766 0.901000
vt 0.673189 0.901000
vt 0.668490 0.901000
vt 0.668490 0.901000
vt 0.673189 0.901000
vt 0.668490 0.859889
vt 0.668490 0.885375
vt 0.668490 0.885375
vt 0.668490 0.859889
vt 0.673189 0.859889
vt 0.673189 0.885375
vt 0.733067 0.885375
vt 0.733067 0.859889
vt 0.323931 0.852910
vt 0.323931 0.897510
vt 0.330480 0.897510
vt 0.330480 0.852910
vt 0.323931 0.821660
vt 0.323931 0.866260
vt 0.323931 0.866260
vt 0.323931 0.821660
vt 0.330480 0.821660
vt 0.330480 0.866260
vt 0.330480 0.866260
vt 0.330480 0.821660
vt 0.330480 0.852910
vt 0.330480 0.897510
vt 0.323931 0.897510
vt 0.323931 0.852910
vt 0.278901 0.852910
vt 0.278901 0.897510
vt 0.285450 0.897510
vt 0.285450 0.852910
vt 0.278901 0.821660
vt 0.278901 0.866260
vt 0.278901 0.866260
vt 0.278901 0.821660
vt 0.285450 0.821660
vt 0.285450 0.866260
vt 0.285450 0.866260
vt 0.285450 0.821660
vt 0.285450 0.852910
vt 0.285450 0.897510
vt 0.278901 0.897510
vt 0.278901 0.852910
vt 0.733067 0.828639
vt 0.737766 0.828639
vt 0.737766 0.828639
vt 0.733067 0.828639
vt 0.668490 0.828639
vt 0.673189 0.828639
vt 0.673189 0.828639
vt 0.668490 0.828639
vn 0.0000 0.0000 1.0000
vn 1.0000 0.0000 0.0000
vn 0.0000 1.0000 0.0000
vn -1.0000 0.0000 0.0000
vn 0.0000 0.0000 -1.0000
vn -0.7071 0.0000 0.7071
vn -0.7071 0.0000 -0.7071
vn 0.7071 0.0000 -0.7071
vn 0.7071 0.0000 0.7071
vn 0.0000 -1.0000 0.0000
usemtl citybits_texture
s 1
f 26/1/1 27/2/1 20/3/1 17/4/1
f 30/5/2 31/6/2 28/7/2 25/8/2
f 31/9/3 32/10/3 27/11/3 28/12/3
f 23/13/3 24/14/3 19/15/3 20/16/3
f 18/17/4 19/18/4 24/19/4 21/20/4
f 22/21/5 23/22/5 32/23/5 29/24/5
f 3/25/5 4/26/5 8/27/5 7/28/5
f 1/29/4 2/30/4 4/31/4 3/32/4
f 7/33/2 8/34/2 6/35/2 5/36/2
f 5/37/1 6/38/1 2/39/1 1/40/1
f 11/41/5 12/42/5 16/43/5 15/44/5
f 9/45/4 10/46/4 12/47/4 11/48/4
f 15/49/2 16/50/2 14/51/2 13/52/2
f 13/53/1 14/54/1 10/55/1 9/56/1
f 17/4/6 20/3/6 19/18/6 18/17/6
f 23/22/7 22/21/7 21/20/7 24/19/7
f 31/6/8 30/5/8 29/24/8 32/23/8
f 27/2/9 26/1/9 25/8/9 28/7/9
f 29/57/10 30/58/10 25/59/10 26/60/10
f 32/10/3 23/13/3 20/16/3 27/11/3
f 21/61/10 22/62/10 17/63/10 18/64/10
f 22/62/10 29/57/10 26/60/10 17/63/10
