# Blender v3.4.1 OBJ File: 'CityBits_Export.blend'
# www.blender.org
mtllib road_tsplit.mtl
o road_tsplit_Cube.950
v -1.000000 0.000000 1.000000
v -1.000000 0.070000 1.000000
v -1.000000 0.000000 -1.000000
v -1.000000 0.070000 -1.000000
v 1.000000 0.000000 1.000000
v 1.000000 0.070000 1.000000
v 1.000000 0.000000 -1.000000
v 1.000000 0.070000 -1.000000
v 0.900000 0.000000 -1.000000
v -0.900000 0.000000 -1.000000
v -0.900000 0.070000 -1.000000
v 0.900000 0.070000 -1.000000
v -0.900000 0.000000 1.000000
v 0.900000 0.000000 1.000000
v 0.900000 0.070000 1.000000
v -0.900000 0.070000 1.000000
v -1.000000 0.000000 -0.900000
v -1.000000 0.000000 0.900000
v -1.000000 0.070000 0.900000
v -1.000000 0.070000 -0.900000
v 1.000000 0.000000 0.900000
v 1.000000 0.000000 -0.900000
v 1.000000 0.070000 -0.900000
v 1.000000 0.070000 0.900000
v 0.900000 0.070000 -0.900000
v 0.900000 0.070000 0.900000
v -0.900000 0.070000 -0.900000
v -0.900000 0.070000 0.900000
v -0.900000 0.000000 -0.900000
v -0.900000 0.000000 0.900000
v 0.900000 0.000000 -0.900000
v 0.900000 0.000000 0.900000
v -1.000000 0.100000 -1.000000
v 1.000000 0.100000 -1.000000
v 1.000000 0.100000 1.000000
v -1.000000 0.100000 1.000000
v -0.930000 0.100000 -1.000000
v 0.930000 0.100000 -1.000000
v 0.930000 0.100000 1.000000
v -0.930000 0.100000 1.000000
v -1.000000 0.100000 0.900000
v -1.000000 0.100000 -0.900000
v 1.000000 0.100000 -0.930000
v 1.000000 0.100000 0.930000
v 0.930000 0.100000 -0.930000
v 0.930000 0.100000 0.930000
v -0.930000 0.100000 -0.900000
v -0.930000 0.100000 0.900000
v -0.620000 0.073000 -1.000000
v -0.580000 0.073000 -1.000000
v -0.580000 0.073000 1.000000
v -0.620000 0.073000 1.000000
v 0.872417 0.073000 -0.580000
v 1.000000 0.073000 -0.620000
v 1.000000 0.073000 -0.580000
v 0.580000 0.073000 -0.872417
v 0.620000 0.073000 -1.000000
v 0.580000 0.073000 -1.000000
v 0.620000 0.073000 -0.900000
v 0.900000 0.073000 -0.620000
v 0.635182 0.073000 -0.786717
v 0.693726 0.073000 -0.693726
v 0.786717 0.073000 -0.635183
v 0.760514 0.073000 -0.602259
v 0.665647 0.073000 -0.665647
v 0.602259 0.073000 -0.760514
v -0.020000 0.073000 -0.900000
v 0.020000 0.073000 -0.900000
v 0.020000 0.073000 -0.700000
v -0.020000 0.073000 -0.700000
v -0.020000 0.073000 -0.500000
v 0.020000 0.073000 -0.500000
v 0.020000 0.073000 -0.300000
v -0.020000 0.073000 -0.300000
v -0.020000 0.073000 -0.100000
v 0.020000 0.073000 -0.100000
v 0.020000 0.073000 0.100000
v -0.020000 0.073000 0.100000
v -0.020000 0.073000 0.300000
v 0.020000 0.073000 0.300000
v 0.020000 0.073000 0.500000
v -0.020000 0.073000 0.500000
v -0.020000 0.073000 0.700000
v 0.020000 0.073000 0.700000
v 0.020000 0.073000 0.900000
v -0.020000 0.073000 0.900000
v 0.900000 0.073000 -0.020000
v 0.900000 0.073000 0.020000
v 0.580000 0.073000 -0.600000
v 0.620000 0.073000 -0.600000
v 0.580000 0.073000 0.020000
v 0.620000 0.073000 -0.020000
v 0.580000 0.073000 0.872417
v 0.620000 0.073000 1.000000
v 0.580000 0.073000 1.000000
v 0.872417 0.073000 0.580000
v 1.000000 0.073000 0.620000
v 1.000000 0.073000 0.580000
v 0.900000 0.073000 0.620000
v 0.620000 0.073000 0.900000
v 0.786717 0.073000 0.635182
v 0.693726 0.073000 0.693726
v 0.635182 0.073000 0.786717
v 0.602259 0.073000 0.760514
v 0.665647 0.073000 0.665647
v 0.760514 0.073000 0.602259
v 0.580000 0.073000 0.100000
v 0.620000 0.073000 0.100000
v 0.620000 0.073000 0.200000
v 0.580000 0.073000 0.200000
v 0.580000 0.073000 0.300000
v 0.620000 0.073000 0.300000
v 0.620000 0.073000 0.400000
v 0.580000 0.073000 0.400000
v 0.580000 0.073000 0.600000
v 0.620000 0.073000 0.600000
v 0.620000 0.073000 0.500000
v 0.580000 0.073000 0.500000
vt 0.341823 0.863281
vt 0.341823 0.863281
vt 0.345504 0.863281
vt 0.345504 0.863281
vt 0.341823 0.825770
vt 0.345504 0.825770
vt 0.345504 0.832031
vt 0.341823 0.832031
vt 0.308694 0.825770
vt 0.308694 0.825770
vt 0.308694 0.811717
vt 0.308694 0.811717
vt 0.308694 0.825770
vt 0.312375 0.825770
vt 0.312375 0.811717
vt 0.308694 0.811717
vt 0.345504 0.825770
vt 0.341823 0.825770
vt 0.341823 0.811717
vt 0.345504 0.811717
vt 0.312375 0.825770
vt 0.312375 0.832031
vt 0.308694 0.832031
vt 0.345504 0.825770
vt 0.345504 0.811717
vt 0.345504 0.811717
vt 0.312375 0.811717
vt 0.308694 0.811717
vt 0.312375 0.811717
vt 0.341823 0.791153
vt 0.312375 0.791153
vt 0.312375 0.780467
vt 0.341823 0.780467
vt 0.341823 0.811717
vt 0.341823 0.825770
vt 0.312375 0.791153
vt 0.341823 0.791153
vt 0.341823 0.780467
vt 0.312375 0.780467
vt 0.345504 0.780467
vt 0.341823 0.780467
vt 0.341823 0.780467
vt 0.345504 0.780467
vt 0.341823 0.811717
vt 0.345504 0.811717
vt 0.341823 0.832031
vt 0.345504 0.832031
vt 0.312375 0.780467
vt 0.312375 0.780467
vt 0.312375 0.811717
vt 0.345504 0.825770
vt 0.341823 0.825770
vt 0.341823 0.832031
vt 0.345504 0.832031
vt 0.345504 0.832031
vt 0.341823 0.832031
vt 0.308694 0.832031
vt 0.308694 0.832031
vt 0.308694 0.825770
vt 0.341823 0.791153
vt 0.312375 0.791153
vt 0.312375 0.791153
vt 0.341823 0.791153
vt 0.308694 0.832031
vt 0.345504 0.791153
vt 0.345504 0.791153
vt 0.312375 0.825770
vt 0.312375 0.832031
vt 0.308694 0.863281
vt 0.308694 0.863281
vt 0.312375 0.863281
vt 0.312375 0.863281
vt 0.312375 0.825770
vt 0.312375 0.832031
vt 0.345504 0.863281
vt 0.341823 0.863281
vt 0.341823 0.863281
vt 0.345504 0.863281
vt 0.312375 0.832031
vt 0.308694 0.863281
vt 0.312375 0.863281
vt 0.308694 0.863281
vt 0.312375 0.863281
vt 0.341823 0.811717
vt 0.466823 0.666153
vt 0.466823 0.666153
vt 0.437375 0.666153
vt 0.437375 0.666153
vt 0.466823 0.666153
vt 0.466823 0.666153
vt 0.437375 0.666153
vt 0.437375 0.666153
vt 0.466823 0.666153
vt 0.466823 0.666153
vt 0.437375 0.666153
vt 0.437375 0.666153
vt 0.487541 0.666153
vt 0.458736 0.666153
vt 0.466823 0.666153
vt 0.466823 0.666153
vt 0.487541 0.666153
vt 0.458736 0.666153
vt 0.216823 0.916153
vt 0.216823 0.916153
vt 0.187375 0.916153
vt 0.187375 0.916153
vt 0.216823 0.916153
vt 0.216823 0.916153
vt 0.187375 0.916153
vt 0.187375 0.916153
vt 0.216823 0.916153
vt 0.216823 0.916153
vt 0.187375 0.916153
vt 0.187375 0.916153
vt 0.216823 0.916153
vt 0.216823 0.916153
vt 0.187375 0.916153
vt 0.187375 0.916153
vt 0.216823 0.916153
vt 0.216823 0.916153
vt 0.187375 0.916153
vt 0.187375 0.916153
vt 0.187375 0.916153
vt 0.187375 0.916153
vt 0.216823 0.916153
vt 0.216823 0.916153
vt 0.216823 0.916153
vt 0.187375 0.916153
vt 0.466823 0.666153
vt 0.466823 0.666153
vt 0.437375 0.666153
vt 0.437375 0.666153
vt 0.466823 0.666153
vt 0.466823 0.666153
vt 0.437375 0.666153
vt 0.437375 0.666153
vt 0.487541 0.666153
vt 0.458736 0.666153
vt 0.466823 0.666153
vt 0.466823 0.666153
vt 0.487541 0.666153
vt 0.458736 0.666153
vt 0.216823 0.916153
vt 0.216823 0.916153
vt 0.187375 0.916153
vt 0.187375 0.916153
vt 0.216823 0.916153
vt 0.216823 0.916153
vt 0.187375 0.916153
vt 0.187375 0.916153
vt 0.216823 0.916153
vt 0.216823 0.916153
vt 0.187375 0.916153
vt 0.187375 0.916153
vn 0.0000 1.0000 0.0000
vn 0.0000 0.7071 0.7071
vn -1.0000 0.0000 0.0000
vn 0.0000 0.0000 -1.0000
vn 0.0000 0.0000 1.0000
vn 1.0000 0.0000 0.0000
vn 0.0000 -1.0000 0.0000
vn 0.0000 0.7071 -0.7071
vn -0.7071 0.7071 0.0000
vn 0.7071 0.7071 0.0000
usemtl citybits_texture
s 1
f 38/1/1 45/2/1 43/3/1 34/4/1
f 25/5/2 23/6/2 43/7/2 45/8/2
f 2/9/3 19/10/3 18/11/3 1/12/3
f 4/13/4 11/14/4 10/15/4 3/16/4
f 6/17/5 15/18/5 14/19/5 5/20/5
f 2/9/5 16/21/5 40/22/5 36/23/5
f 8/24/6 23/6/6 22/25/6 7/26/6
f 10/15/7 29/27/7 17/28/7 3/16/7
f 13/29/5 16/21/5 2/9/5 1/12/5
f 15/30/5 16/31/5 13/32/5 14/33/5
f 9/34/4 12/35/4 8/24/4 7/26/4
f 11/36/4 12/37/4 9/38/4 10/39/4
f 21/40/7 32/41/7 31/42/7 22/43/7
f 32/44/7 21/45/7 5/20/7 14/19/7
f 8/24/4 12/35/4 38/46/4 34/47/4
f 30/48/7 32/41/7 14/33/7 13/32/7
f 31/42/7 29/49/7 10/39/7 9/38/7
f 29/27/7 30/50/7 18/11/7 17/28/7
f 18/11/7 30/50/7 13/29/7 1/12/7
f 24/51/8 26/52/8 46/53/8 44/54/8
f 8/24/6 34/47/6 43/7/6 23/6/6
f 6/17/5 35/55/5 39/56/5 15/18/5
f 15/18/9 39/56/9 46/53/9 26/52/9
f 32/41/7 30/48/7 29/49/7 31/42/7
f 19/10/3 41/57/3 42/58/3 20/59/3
f 26/60/1 28/61/1 16/31/1 15/30/1
f 27/62/1 25/63/1 12/37/1 11/36/1
f 4/13/3 20/59/3 42/58/3 33/64/3
f 25/63/1 26/60/1 24/65/1 23/66/1
f 16/21/10 28/67/10 48/68/10 40/22/10
f 28/61/1 26/60/1 25/63/1 27/62/1
f 6/17/6 24/51/6 44/54/6 35/55/6
f 33/69/1 42/70/1 47/71/1 37/72/1
f 2/9/3 36/23/3 41/57/3 19/10/3
f 27/73/10 47/74/10 48/68/10 28/67/10
f 23/66/6 24/65/6 21/40/6 22/43/6
f 21/45/6 24/51/6 6/17/6 5/20/6
f 19/10/3 20/59/3 17/28/3 18/11/3
f 17/28/3 20/59/3 4/13/3 3/16/3
f 44/75/1 46/76/1 39/77/1 35/78/1
f 27/73/10 11/14/10 37/79/10 47/74/10
f 41/80/1 48/81/1 47/71/1 42/70/1
f 48/81/1 41/80/1 36/82/1 40/83/1
f 12/35/9 25/5/9 45/8/9 38/46/9
f 7/26/7 22/25/7 31/84/7 9/34/7
f 11/14/4 4/13/4 33/64/4 37/79/4
f 51/85/1 50/86/1 49/87/1 52/88/1
f 54/89/1 60/90/1 53/91/1 55/92/1
f 59/93/1 57/94/1 58/95/1 56/96/1
f 53/91/1 60/90/1 63/97/1 64/98/1
f 64/98/1 63/97/1 62/99/1 65/100/1
f 65/100/1 62/99/1 61/101/1 66/102/1
f 66/102/1 61/101/1 59/93/1 56/96/1
f 69/103/1 68/104/1 67/105/1 70/106/1
f 73/107/1 72/108/1 71/109/1 74/110/1
f 77/111/1 76/112/1 75/113/1 78/114/1
f 81/115/1 80/116/1 79/117/1 82/118/1
f 85/119/1 84/120/1 83/121/1 86/122/1
f 89/123/1 91/124/1 92/125/1 90/126/1
f 91/124/1 88/127/1 87/128/1 92/125/1
f 94/129/1 100/130/1 93/131/1 95/132/1
f 99/133/1 97/134/1 98/135/1 96/136/1
f 93/131/1 100/130/1 103/137/1 104/138/1
f 104/138/1 103/137/1 102/139/1 105/140/1
f 105/140/1 102/139/1 101/141/1 106/142/1
f 106/142/1 101/141/1 99/133/1 96/136/1
f 109/143/1 108/144/1 107/145/1 110/146/1
f 113/147/1 112/148/1 111/149/1 114/150/1
f 116/151/1 117/152/1 118/153/1 115/154/1
