# Blender v3.4.1 OBJ File: 'CityBits_Export.blend'
# www.blender.org
mtllib streetlight.mtl
o streetlight_Cylinder.162
v 0.000000 0.000009 0.030096
v 0.000000 0.212569 0.030096
v -0.021281 0.000009 0.021281
v -0.021281 0.212569 0.021281
v -0.030096 0.000009 -0.000000
v -0.030096 0.212569 -0.000000
v -0.021281 0.000009 -0.021282
v -0.021281 0.212569 -0.021282
v 0.000000 0.000009 -0.030097
v 0.000000 0.212569 -0.030097
v 0.021281 0.000009 -0.021282
v 0.021281 0.212569 -0.021282
v 0.030097 0.000009 -0.000000
v 0.030097 0.212569 -0.000000
v 0.021281 0.000009 0.021281
v 0.021281 0.212569 0.021281
v -0.008246 0.241360 0.008246
v 0.000000 0.241360 0.011662
v -0.011662 0.241360 -0.000000
v -0.008246 0.241360 -0.008247
v 0.000000 0.241360 -0.011662
v 0.008246 0.241360 -0.008247
v 0.011662 0.241360 -0.000000
v 0.008246 0.241360 0.008246
v -0.008246 0.769178 0.008246
v 0.000000 0.769178 0.011662
v -0.011662 0.769178 -0.000000
v -0.008246 0.769178 -0.008247
v 0.000000 0.769178 -0.011662
v 0.008247 0.769178 -0.008247
v 0.011662 0.769178 -0.000000
v 0.008247 0.769178 0.008246
v -0.091194 0.912756 0.007140
v -0.091207 0.920068 0.010157
v -0.091170 0.909746 -0.000000
v -0.091194 0.912756 -0.007140
v -0.091207 0.920068 -0.010157
v -0.091159 0.927425 -0.007217
v -0.091122 0.930482 -0.000000
v -0.091159 0.927425 0.007216
v 0.004431 0.852476 -0.000000
v -0.015987 0.894687 -0.000000
v -0.051910 0.924668 -0.000000
v -0.053409 0.921965 0.007278
v -0.019265 0.893154 0.007366
v 0.001299 0.852071 0.007740
v -0.006045 0.851156 -0.010901
v -0.026147 0.889905 -0.010348
v -0.056710 0.915841 -0.010160
v -0.053409 0.921965 -0.007278
v -0.019265 0.893154 -0.007367
v 0.001299 0.852071 -0.007740
v -0.016151 0.849882 -0.000000
v -0.035339 0.885018 -0.000000
v -0.060832 0.906690 -0.000000
v -0.059654 0.909482 -0.007106
v -0.032523 0.886646 -0.007261
v -0.013194 0.850258 -0.007668
v -0.006045 0.851156 0.010900
v -0.026147 0.889905 0.010347
v -0.056710 0.915841 0.010160
v -0.059654 0.909482 0.007106
v -0.032523 0.886646 0.007260
v -0.013194 0.850258 0.007667
v -0.098736 0.905767 0.013964
v -0.098760 0.920066 0.022088
v -0.098689 0.905921 -0.000000
v -0.098736 0.905767 -0.013965
v -0.098760 0.920066 -0.022089
v -0.098666 0.934455 -0.014114
v -0.098666 0.934455 0.014113
v -0.163346 0.905870 0.021818
v -0.163370 0.920170 0.034511
v -0.163346 0.905870 -0.021818
v -0.163370 0.920170 -0.034511
v -0.163276 0.955716 -0.022052
v -0.163276 0.955716 0.022051
v -0.206230 0.906034 0.021818
v -0.206254 0.920334 0.034511
v -0.206230 0.906034 -0.021818
v -0.206254 0.920334 -0.034511
v -0.209209 0.959924 -0.019228
v -0.209209 0.959924 0.019227
v -0.234839 0.906127 0.013609
v -0.239210 0.920426 0.021526
v -0.234839 0.906127 -0.013609
v -0.239210 0.920426 -0.021527
v -0.173760 0.891459 0.016096
v -0.173760 0.891459 -0.016097
v -0.205398 0.891580 0.016096
v -0.205398 0.891580 -0.016097
v -0.225190 0.891648 0.010040
v -0.225190 0.891648 -0.010040
vt 0.274208 0.800914
vt 0.274208 0.827483
vt 0.276442 0.827483
vt 0.276442 0.800914
vt 0.277367 0.827483
vt 0.277367 0.800914
vt 0.276442 0.827483
vt 0.276442 0.800914
vt 0.274208 0.827483
vt 0.274208 0.800914
vt 0.271974 0.827483
vt 0.271974 0.800914
vt 0.271049 0.827483
vt 0.271049 0.800914
vt 0.315260 0.871152
vt 0.331401 0.871152
vt 0.321515 0.917683
vt 0.315260 0.917683
vt 0.271974 0.827483
vt 0.271974 0.800914
vt 0.275073 0.831081
vt 0.275432 0.831081
vt 0.275432 0.861680
vt 0.275073 0.861680
vt 0.299119 0.871152
vt 0.292433 0.871152
vt 0.306415 0.917683
vt 0.309006 0.917683
vt 0.338087 0.871152
vt 0.331401 0.871152
vt 0.321515 0.917683
vt 0.324105 0.917683
vt 0.299119 0.871152
vt 0.309006 0.917683
vt 0.315260 0.871152
vt 0.315260 0.917683
vt 0.279814 0.880777
vt 0.279656 0.881115
vt 0.283772 0.881842
vt 0.283776 0.881460
vt 0.275073 0.831081
vt 0.274208 0.831081
vt 0.274208 0.861680
vt 0.275073 0.861680
vt 0.273342 0.831081
vt 0.273342 0.861680
vt 0.272984 0.831081
vt 0.273342 0.831081
vt 0.273342 0.861680
vt 0.272984 0.861680
vt 0.274208 0.831081
vt 0.274208 0.861680
vt 0.275390 0.817349
vt 0.278703 0.806444
vt 0.278714 0.828754
vt 0.275396 0.828756
vt 0.279814 0.880777
vt 0.280160 0.880012
vt 0.283781 0.880540
vt 0.283776 0.881460
vt 0.280469 0.879217
vt 0.280593 0.878868
vt 0.283777 0.879250
vt 0.283780 0.879627
vt 0.280469 0.879217
vt 0.280160 0.880012
vt 0.283781 0.880540
vt 0.283780 0.879627
vt 0.275593 0.871815
vt 0.274842 0.871927
vt 0.274072 0.872041
vt 0.273743 0.872092
vt 0.275903 0.871768
vt 0.275593 0.871815
vt 0.277622 0.876363
vt 0.277917 0.876159
vt 0.274072 0.872041
vt 0.274842 0.871927
vt 0.277622 0.876363
vt 0.276952 0.876770
vt 0.276230 0.877177
vt 0.275886 0.877368
vt 0.276230 0.877177
vt 0.276952 0.876770
vt 0.275375 0.840234
vt 0.278672 0.851202
vt 0.278714 0.828754
vt 0.275396 0.828756
vt 0.275390 0.817349
vt 0.278703 0.806444
vt 0.278682 0.806685
vt 0.275380 0.812652
vt 0.278672 0.851202
vt 0.275375 0.840234
vt 0.309273 0.901597
vt 0.309273 0.901597
vt 0.280893 0.868427
vt 0.280893 0.868427
vt 0.309304 0.823831
vt 0.309314 0.846140
vt 0.328151 0.846397
vt 0.328140 0.824087
vt 0.280935 0.845979
vt 0.280924 0.823670
vt 0.309304 0.823831
vt 0.309314 0.846140
vt 0.299929 0.880551
vt 0.299953 0.880310
vt 0.332957 0.880471
vt 0.280924 0.823670
vt 0.280935 0.845979
vt 0.329449 0.908162
vt 0.484763 0.607764
vt 0.472002 0.712645
vt 0.472002 0.712645
vt 0.484763 0.607764
vt 0.328140 0.824087
vt 0.328151 0.846397
vt 0.432215 0.606566
vt 0.397160 0.605894
vt 0.408982 0.711265
vt 0.433234 0.711761
vt 0.329449 0.908162
vt 0.432215 0.606566
vt 0.433234 0.711761
vt 0.342627 0.846541
vt 0.342627 0.846541
vt 0.340706 0.824231
vt 0.340706 0.824231
vt 0.408982 0.711265
vt 0.275359 0.845002
vt 0.397160 0.605894
vt 0.332957 0.880471
vt 0.299953 0.880310
vn -0.0000 0.0000 1.0000
vn -0.3827 0.0000 0.9239
vn -0.9239 0.0000 0.3827
vn -1.0000 0.0000 -0.0000
vn -0.7071 0.0000 -0.7071
vn -0.3827 0.0000 -0.9239
vn 0.3827 0.0000 -0.9239
vn 0.7071 0.0000 -0.7071
vn 0.9239 0.0000 -0.3827
vn -0.0000 0.5392 -0.8422
vn -0.5955 0.5392 -0.5955
vn 0.9239 0.0000 0.3827
vn 0.7071 0.0000 0.7071
vn -0.9239 0.0000 -0.3827
vn -0.9996 -0.0287 -0.0000
vn -0.7071 -0.0193 -0.7068
vn 0.5955 0.5392 0.5955
vn 0.8422 0.5392 -0.0000
vn -0.8422 0.5392 0.0000
vn -0.5955 0.5392 0.5955
vn 0.5955 0.5392 -0.5955
vn -0.0000 0.5392 0.8422
vn 0.2965 0.6665 0.6840
vn 0.4137 0.9104 0.0000
vn 0.1446 0.9895 0.0000
vn 0.1026 0.7207 0.6856
vn -0.7071 0.0000 0.7071
vn -0.3889 -0.0093 0.9212
vn -0.7071 -0.0193 0.7068
vn 0.3827 -0.0000 0.9239
vn 0.7124 0.0319 0.7010
vn 0.3847 0.0192 0.9228
vn 0.7124 0.0319 -0.7010
vn 0.9991 0.0427 -0.0000
vn -0.3889 -0.0093 -0.9212
vn 0.3847 0.0192 -0.9228
vn 0.7507 -0.5630 -0.3456
vn 0.4924 -0.8365 -0.2403
vn 0.6101 0.1712 -0.7736
vn 0.8286 -0.0059 -0.5598
vn 0.2965 0.6665 -0.6840
vn 0.1480 0.3473 -0.9260
vn 0.0508 0.3853 -0.9214
vn 0.1026 0.7207 -0.6856
vn -0.2637 -0.6129 -0.7449
vn -0.3917 -0.9201 -0.0000
vn -0.1015 -0.9948 0.0000
vn -0.0735 -0.6974 -0.7129
vn -0.2637 -0.6129 0.7449
vn -0.1616 -0.3588 0.9193
vn -0.0447 -0.3974 0.9165
vn -0.0735 -0.6974 0.7129
vn 0.1480 0.3473 0.9260
vn 0.0508 0.3853 0.9214
vn -0.1616 -0.3588 -0.9193
vn -0.0447 -0.3974 -0.9165
vn -0.6622 -0.1820 -0.7269
vn -0.3852 -0.0927 -0.9182
vn 0.6954 0.1979 -0.6908
vn 0.9650 0.2621 -0.0000
vn -0.9607 -0.2777 0.0000
vn -0.6622 -0.1820 0.7269
vn -0.5411 -0.4329 0.7209
vn -0.7732 -0.6342 0.0000
vn 0.6954 0.1979 0.6908
vn 0.3643 0.1176 0.9238
vn -0.5411 -0.4329 -0.7209
vn -0.3287 -0.2411 -0.9131
vn -0.3852 -0.0927 0.9182
vn 0.5654 0.4505 -0.6910
vn 0.7262 0.5550 -0.4057
vn 0.5654 0.4505 0.6910
vn 0.2926 0.2514 0.9226
vn 0.3643 0.1176 -0.9238
vn -0.3287 -0.2411 0.9131
vn 0.2926 0.2514 -0.9226
vn 0.7262 0.5550 0.4057
vn 0.8053 0.4326 0.4053
vn 0.5262 0.6872 0.5009
vn 0.6101 0.1712 0.7736
vn 0.8286 -0.0059 0.5598
vn 0.7507 -0.5630 0.3456
vn 0.4924 -0.8365 0.2403
vn 0.3246 -0.9459 -0.0000
vn 0.6153 -0.7883 -0.0000
vn 0.5262 0.6872 -0.5009
vn 0.8053 0.4326 -0.4053
vn 0.2011 0.9796 0.0000
vn 0.0631 -0.6247 0.7783
vn 0.0586 -0.6276 0.7764
vn -0.1238 -0.6360 0.7617
vn -0.1417 -0.6310 0.7628
vn 0.1250 -0.5838 -0.8023
vn 0.0631 -0.6247 -0.7783
vn 0.0586 -0.6276 -0.7764
vn 0.0003 -1.0000 -0.0016
vn 0.0940 0.3600 -0.9282
vn 0.0831 0.3587 -0.9297
vn 0.1250 -0.5838 0.8023
vn 0.0831 0.3587 0.9297
vn 0.0940 0.3600 0.9282
vn -0.1340 0.3395 0.9310
vn -0.1672 0.3368 0.9266
vn 0.8105 -0.5857 0.0000
vn -0.1417 -0.6310 -0.7628
vn -0.1238 -0.6360 -0.7617
vn -0.1336 -0.3774 0.9164
vn -0.2627 -0.3799 0.8869
vn -0.1331 -0.3773 0.9165
vn -0.1672 0.3368 -0.9266
vn -0.1340 0.3395 -0.9310
vn -0.1336 -0.3774 -0.9164
vn -0.0014 -0.3681 -0.9298
vn -0.1331 -0.3773 -0.9165
vn -0.3471 0.3151 -0.8833
vn 0.0912 0.9958 0.0000
vn -0.2643 -0.5903 0.7627
vn -0.3471 0.3151 0.8833
vn -0.9563 -0.2924 0.0000
vn -0.2643 -0.5903 -0.7627
vn -0.7963 0.6049 0.0000
vn -0.0038 -1.0000 0.0000
vn -0.0037 -1.0000 0.0000
vn -0.0034 -1.0000 0.0000
vn 0.6244 0.7811 -0.0000
vn -0.0014 -0.3681 0.9298
vn -0.2627 -0.3799 -0.8869
vn 0.0003 -1.0000 0.0016
vn -0.8322 -0.5545 0.0000
usemtl citybits_texture
s 1
f 1/1/1 2/2/1 4/3/2 3/4/2
f 3/4/3 4/3/3 6/5/4 5/6/4
f 5/6/4 6/5/4 8/7/5 7/8/5
f 7/8/5 8/7/5 10/9/6 9/10/6
f 9/10/7 10/9/7 12/11/8 11/12/8
f 11/12/8 12/11/8 14/13/9 13/14/9
f 10/15/10 8/16/11 20/17/11 21/18/10
f 13/14/12 14/13/12 16/19/13 15/20/13
f 15/20/13 16/19/13 2/2/1 1/1/1
f 20/21/5 19/22/14 27/23/15 28/24/16
f 16/25/17 14/26/18 23/27/18 24/28/17
f 6/29/19 4/30/20 17/31/20 19/32/19
f 12/33/21 10/15/10 21/18/10 22/34/21
f 2/35/22 16/25/17 24/28/17 18/36/22
f 4/30/20 2/35/22 18/36/22 17/31/20
f 8/16/11 6/29/19 19/32/19 20/17/11
f 14/26/18 12/33/21 22/34/21 23/27/18
f 44/37/23 43/38/24 39/39/25 40/40/26
f 17/41/27 18/42/2 26/43/28 25/44/29
f 18/42/30 24/45/30 32/46/31 26/43/32
f 23/47/9 22/48/9 30/49/33 31/50/34
f 21/51/6 20/21/5 28/24/16 29/52/35
f 19/22/3 17/41/27 25/44/29 27/23/15
f 24/45/12 23/47/12 31/50/34 32/46/31
f 22/48/7 21/51/7 29/52/36 30/49/33
f 36/53/37 68/54/38 69/55/39 37/56/40
f 50/57/41 49/58/42 37/59/43 38/60/44
f 56/61/45 55/62/46 35/63/47 36/64/48
f 62/65/49 61/66/50 34/67/51 33/68/52
f 61/66/53 44/37/23 40/40/26 34/67/54
f 43/38/24 50/57/41 38/60/44 39/39/25
f 49/58/55 56/61/45 36/64/48 37/59/56
f 55/62/46 62/65/49 33/68/52 35/63/47
f 29/52/35 28/24/16 58/69/57 47/70/58
f 31/50/34 30/49/33 52/71/59 41/72/60
f 53/73/61 64/74/62 63/75/63 54/76/64
f 54/76/64 63/75/63 62/65/49 55/62/46
f 26/43/32 32/46/31 46/77/65 59/78/66
f 47/70/58 58/69/57 57/79/67 48/80/68
f 48/80/68 57/79/67 56/61/45 49/58/55
f 25/44/29 26/43/28 59/78/69 64/74/62
f 41/72/60 52/71/59 51/81/70 42/82/71
f 42/82/71 51/81/70 50/57/41 43/38/24
f 28/24/16 27/23/15 53/73/61 58/69/57
f 59/78/66 46/77/65 45/83/72 60/84/73
f 60/84/73 45/83/72 44/37/23 61/66/53
f 30/49/33 29/52/36 47/70/74 52/71/59
f 64/74/62 59/78/69 60/84/75 63/75/63
f 63/75/63 60/84/75 61/66/50 62/65/49
f 32/46/31 31/50/34 41/72/60 46/77/65
f 58/69/57 53/73/61 54/76/64 57/79/67
f 57/79/67 54/76/64 55/62/46 56/61/45
f 52/71/59 47/70/74 48/80/76 51/81/70
f 51/81/70 48/80/76 49/58/42 50/57/41
f 46/77/65 41/72/60 42/82/77 45/83/72
f 45/83/72 42/82/77 43/38/24 44/37/23
f 40/85/78 71/86/79 66/87/80 34/88/81
f 33/89/82 65/90/83 67/91/84 35/92/85
f 37/56/40 69/55/39 70/93/86 38/94/87
f 35/92/85 67/91/84 68/54/38 36/53/37
f 76/95/88 77/96/88 71/97/79 70/98/86
f 72/99/89 73/100/90 79/101/91 78/102/92
f 69/103/93 68/104/93 74/105/94 75/106/95
f 67/107/84 65/108/83 72/109/96
f 70/98/86 69/103/39 75/106/97 76/95/98
f 65/110/99 66/111/99 73/100/90 72/99/89
f 66/111/80 71/97/79 77/96/100 73/100/101
f 73/100/101 77/96/100 83/112/102 79/101/103
f 72/113/104 88/114/104 89/115/104 74/116/104
f 75/106/95 74/105/94 80/117/105 81/118/106
f 78/119/107 84/120/108 92/121/108 90/122/109
f 76/95/98 75/106/97 81/118/110 82/123/111
f 80/124/112 74/116/113 89/115/113 91/125/114
f 82/123/111 81/118/110 87/126/115
f 77/96/88 76/95/88 82/123/116 83/112/116
f 78/102/92 79/101/91 85/127/117 84/128/117
f 79/101/103 83/112/102 85/127/118
f 85/127/119 87/126/119 86/129/119 84/128/119
f 81/118/106 80/117/105 86/129/120 87/126/120
f 87/126/121 85/127/121 83/112/121 82/123/121
f 89/115/122 88/114/122 90/122/123 91/125/123
f 91/125/123 90/122/123 92/121/124 93/130/124
f 40/85/78 39/131/125 71/86/79
f 72/113/126 78/119/107 90/122/109 88/114/126
f 86/132/127 80/124/112 91/125/114 93/130/127
f 34/88/81 66/87/80 65/90/83 33/89/82
f 70/93/86 71/86/79 39/131/125
f 72/109/96 74/133/128 67/107/84
f 68/134/38 67/107/84 74/133/128
f 84/120/129 86/132/129 93/130/129 92/121/129
f 38/94/87 70/93/86 39/131/125
f 64/74/62 53/73/61 27/23/15 25/44/29
